<?xml version="1.0" encoding="utf-8"?>
<!-- Generator: Adobe Illustrator 16.0.0, SVG Export Plug-In . SVG Version: 6.00 Build 0)  -->
<!DOCTYPE svg PUBLIC "-//W3C//DTD SVG 1.1//EN" "http://www.w3.org/Graphics/SVG/1.1/DTD/svg11.dtd">
<svg version="1.1" id="Layer_1" xmlns="http://www.w3.org/2000/svg" xmlns:xlink="http://www.w3.org/1999/xlink" x="0px" y="0px"
	 width="48px" height="48px" viewBox="0 0 48 48" enable-background="new 0 0 48 48" xml:space="preserve">
<path d="M28.2,45.3L12.8,40.9V23.45h4.6l12.8,4.8c0.966,0.367,1.774,0.941,2.425,1.725S33.6,31.883,33.6,33.35h-3.5
	c-1.633,0-2.824-0.05-3.574-0.149c-0.75-0.101-1.559-0.284-2.425-0.55l-3.6-1.2l-0.55,1.7l3.8,1.3
	c0.733,0.233,1.592,0.408,2.575,0.524c0.983,0.117,1.958,0.176,2.925,0.176H39c2,0,3.367,0.342,4.1,1.024
	c0.734,0.684,1.101,1.659,1.101,2.925v1.351L28.2,45.3z M1.65,43.7V23.45h7.8V43.7H1.65z"/>
<path d="M38.226,20.45c-0.967-0.634-2.083-1.067-3.351-1.3c0.167-1.2,0.4-2.325,0.7-3.375c0.3-1.051,0.567-1.893,0.8-2.525
	c0.367,0.233,0.775,0.416,1.226,0.55s0.925,0.2,1.425,0.2c1.8,0,3.117-0.625,3.95-1.875S44.375,9.5,44.676,8
	c0.366-1.767,0.482-3.767,0.35-6c-0.2,0.367-0.483,0.7-0.85,1c-0.334,0.267-0.75,0.5-1.25,0.7c-0.5,0.2-1.134,0.3-1.9,0.3h-2
	c-1.4,0-2.584,0.483-3.55,1.45c-0.967,0.966-1.45,2.15-1.45,3.55c0,0.467,0.066,0.925,0.2,1.375s0.316,0.858,0.55,1.225
	c0.666-0.667,1.35-1.3,2.05-1.9c0.7-0.6,1.434-1.167,2.2-1.7c-1.334,1.333-2.5,2.792-3.5,4.375c-1,1.584-1.834,3.191-2.5,4.825
	c-0.633-1.233-1.316-2.3-2.05-3.2s-1.384-1.566-1.95-2c0.467,0.2,0.916,0.434,1.35,0.7s0.867,0.566,1.301,0.899
	c0.133-0.266,0.225-0.524,0.274-0.774S32.025,12.3,32.025,12c-0.033-1.367-0.517-2.392-1.45-3.075
	c-0.933-0.683-1.966-1.175-3.1-1.475c-1.3-0.333-2.784-0.483-4.45-0.45c0.3,0.434,0.542,0.9,0.725,1.4
	c0.183,0.5,0.275,1.034,0.275,1.6v2c0,1.1,0.392,2.041,1.175,2.825C25.984,15.608,26.926,16,28.025,16c0.5,0,0.967-0.084,1.4-0.25
	s0.833-0.4,1.199-0.7c0.234,0.601,0.434,1.25,0.601,1.95s0.3,1.4,0.399,2.1c-1.366,0.167-2.574,0.575-3.625,1.226
	c-1.022,0.632-1.795,1.402-2.327,2.304c1.882,1.228,4.126,1.947,6.54,1.947h1.625c2.414,0,4.658-0.72,6.54-1.947
	C39.88,21.794,39.164,21.066,38.226,20.45z"/>
</svg>
