<?xml version="1.0" encoding="utf-8"?>
<!-- Generator: Adobe Illustrator 16.0.0, SVG Export Plug-In . SVG Version: 6.00 Build 0)  -->
<!DOCTYPE svg PUBLIC "-//W3C//DTD SVG 1.1//EN" "http://www.w3.org/Graphics/SVG/1.1/DTD/svg11.dtd">
<svg version="1.1" id="Layer_1" xmlns="http://www.w3.org/2000/svg" xmlns:xlink="http://www.w3.org/1999/xlink" x="0px" y="0px"
	 width="383px" height="383px" viewBox="0 0 383 383" enable-background="new 0 0 383 383" xml:space="preserve">
<g>
	<path fill-rule="evenodd" clip-rule="evenodd" d="M375.717,203.702c-1.764,2.361-3.28,4.964-5.33,7.043
		c-11.57,11.737-23.268,23.35-34.923,35.003c-6.956,6.955-11.426,6.972-18.519,0.083c-0.582-0.565-1.205-1.09-2.111-1.905
		c-3.164,3.414-6.485,6.538-9.194,10.123c-1.338,1.769-1.815,4.346-2.196,6.638c-0.468,2.813-0.456,5.709-0.602,8.57
		c-0.394,7.727-3.3,14.368-8.724,19.85c-9.24,9.339-18.591,18.567-27.779,27.955c-1.228,1.255-2.146,3.077-2.579,4.795
		c-1.582,6.272-5.393,10.502-11.193,12.951c1.694,18.823-6.31,26.844-23.198,23.436c-10.258,14.895-17.385,15.516-32.486,3.438
		c-3.483,2.857-6.443,6.388-10.226,8.158c-7.751,3.629-14.585,0.938-20.418-4.905c-20.502-20.541-41.038-41.049-61.545-61.585
		c-4.979-4.985-9.959-9.971-14.826-15.063c-5.35-5.599-7.854-12.396-8.095-20.104c-0.093-2.981-0.175-5.994-0.683-8.919
		c-0.334-1.925-1.043-4.023-2.246-5.51c-2.762-3.417-5.927-6.508-9.155-9.975c-1.662,1.59-3.049,2.996-4.519,4.31
		c-4.208,3.762-9.576,4.04-13.562,0.122c-13.456-13.229-26.755-26.616-40.039-40.019c-1.214-1.224-1.891-2.98-2.816-4.489
		c0-1.673,0-3.346,0-5.018c2.094-2.546,3.997-5.281,6.312-7.607c22.244-22.343,44.557-44.619,66.853-66.91
		c6.552-6.55,11.389-6.542,17.964,0.03c11.827,11.819,23.648,23.642,35.468,35.467c6.773,6.777,6.79,11.419,0.089,18.27
		c-0.739,0.756-1.445,1.544-2.61,2.792c4.01,3.323,7.697,6.708,11.75,9.577c1.613,1.143,4.076,1.726,6.078,1.576
		c13.608-1.016,26.232,2.348,38.535,7.776c1.792,0.791,4.417,0.672,6.338,0.027c9.013-3.026,17.604-7.479,27.406-7.67
		c2.029-0.04,4.104-0.323,6.081-0.012c10.328,1.628,16.222-5.029,22.98-12.017c-1.625-1.309-3.146-2.307-4.389-3.578
		c-4.735-4.845-4.788-10.306-0.038-15.15c6.939-7.078,13.998-14.038,21.007-21.048c5.658-5.658,11.288-11.343,16.982-16.965
		c5.343-5.275,10.664-5.336,15.924-0.125c8.484,8.405,16.934,16.845,25.318,25.349c2.597,2.635,2.646,5.758,0.472,7.979
		c-2.104,2.147-5.314,2.012-8.005-0.363c-0.625-0.552-1.187-1.176-1.777-1.768c-7.094-7.093-14.186-14.188-21.285-21.275
		c-0.827-0.826-1.696-1.609-2.402-2.277c-12.788,12.776-25.447,25.424-37.854,37.82c23.396,23.395,46.916,46.916,70.14,70.139
		c12.304-12.292,25.015-24.991,37.92-37.884c-7.909-7.91-16.172-16.164-24.419-24.435c-0.924-0.926-1.886-1.856-2.603-2.936
		c-1.595-2.4-1.385-4.828,0.68-6.809c1.939-1.861,4.238-2.037,6.558-0.536c0.398,0.258,0.796,0.539,1.131,0.874
		c9.203,9.205,18.421,18.396,27.565,27.659c1.133,1.146,1.876,2.678,2.799,4.03C375.717,200.356,375.717,202.029,375.717,203.702z
		 M77.711,236.573c-0.055-0.096,0.025,0.145,0.185,0.309c1.163,1.2,2.256,2.489,3.531,3.558c7.776,6.516,11.39,14.895,10.979,24.938
		c-0.318,7.785,3.097,13.646,8.428,18.946c24.224,24.082,48.334,48.276,72.497,72.419c1.009,1.009,2.043,2.045,3.231,2.81
		c2.77,1.779,5.556,1.429,7.894-0.752c2.334-2.177,2.9-4.987,1.329-7.823c-0.907-1.639-2.245-3.08-3.562-4.443
		c-11.37-11.766-22.78-23.492-34.175-35.234c-0.748-0.771-1.554-1.507-2.178-2.37c-1.758-2.437-1.846-4.986,0.316-7.143
		c2.161-2.153,4.729-2.078,7.142-0.302c1.046,0.771,1.912,1.796,2.828,2.734c16.424,16.847,32.841,33.7,49.266,50.545
		c4.774,4.897,8.35,5.651,11.658,2.496c3.36-3.203,2.664-6.963-2.236-11.961c-5.268-5.373-10.544-10.737-15.818-16.102
		c-11.806-12.009-23.63-23.997-35.408-36.033c-2.925-2.988-3.1-6.177-0.671-8.471c2.37-2.238,5.249-1.947,8.214,0.851
		c0.694,0.655,1.35,1.352,2.02,2.033c18.604,18.89,37.206,37.783,55.822,56.663c1.085,1.1,2.188,2.231,3.457,3.091
		c2.693,1.824,5.972,1.447,8.205-0.752c2.166-2.133,2.59-5.559,0.878-8.197c-0.705-1.089-1.627-2.056-2.544-2.986
		c-18.702-18.961-37.419-37.908-56.129-56.861c-0.838-0.85-1.75-1.655-2.441-2.614c-1.75-2.424-1.79-4.919,0.277-7.171
		c1.894-2.063,5.044-2.049,7.431-0.057c1.004,0.839,1.895,1.816,2.817,2.751c16.614,16.828,33.216,33.668,49.846,50.479
		c3.543,3.583,7.507,3.998,10.393,1.232c2.928-2.807,2.604-6.77-0.855-10.405c-0.33-0.346-0.674-0.678-1.011-1.016
		c-20.602-20.61-41.239-41.185-61.752-61.882c-2.122-2.142-4.126-2.595-6.955-2.197c-7.435,1.048-14.901,2.385-22.374,2.52
		c-10.574,0.19-18.275-9.774-16.517-20.191c1.229-7.279,5.76-11.48,12.342-14.006c7.596-2.915,15.16-5.918,23.207-9.066
		c-1.051-0.536-1.557-0.83-2.09-1.061c-7.445-3.212-15.309-3.407-23.215-3.111c-6.937,0.26-12.86-2.077-17.966-6.663
		c-2.913-2.615-5.795-5.265-8.271-7.518C109.662,204.628,93.72,220.567,77.711,236.573z M259.717,308.29
		c9.318-9.288,17.696-17.617,26.045-25.975c4.339-4.342,6.548-9.589,6.539-15.759c-0.003-1.671,0.16-3.34,0.205-5.011
		c0.188-6.855,2.479-12.847,7.442-17.662c2.477-2.403,5.116-4.64,7.288-6.596c-16.547-16.549-32.529-32.532-48.604-48.608
		c-0.473,0.45-1.303,1.132-2.006,1.926c-7.839,8.844-17.277,13.166-29.451,12.375c-5.621-0.366-11.677,1.062-17.065,2.987
		c-15.37,5.493-30.503,11.649-45.721,17.567c-2.886,1.122-5.816,2.181-8.574,3.57c-2.861,1.441-4.06,4.008-3.369,7.177
		c0.692,3.171,2.891,4.89,6.051,5.198c1.525,0.149,3.104-0.023,4.636-0.22c6.626-0.853,13.285-1.54,19.848-2.743
		c4.143-0.759,7.001,0.517,9.861,3.396c21.453,21.606,43.021,43.099,64.511,64.67C258.348,305.584,258.916,307.01,259.717,308.29z
		 M91.281,131.423c-23.546,23.525-47.078,47.035-70.186,70.122c12.319,12.32,24.957,24.959,37.301,37.306
		c23.253-23.254,46.78-46.781,70.208-70.208C116.146,156.219,103.472,143.581,91.281,131.423z"/>
	<path fill-rule="evenodd" clip-rule="evenodd" d="M227.561,134.057c-1.2-7.16-2.266-13.589-3.359-20.014
		c-0.761-4.468-1.581-8.927-2.338-13.396c-0.745-4.407,1.062-7.779,4.059-10.91c7.346-7.672,14.518-15.51,21.605-23.117
		c-3.52-0.532-8.234-1.255-12.954-1.955c-5.901-0.875-11.794-1.829-17.712-2.564c-5.002-0.622-8.178-3.317-10.316-7.771
		c-4.54-9.454-9.255-18.824-14.121-28.678c-0.684,1.055-1.235,1.745-1.618,2.518c-4.13,8.335-8.458,16.583-12.267,25.063
		c-2.66,5.923-6.935,8.601-13.221,9.297c-9.009,0.997-17.964,2.477-26.94,3.766c-0.822,0.118-1.627,0.349-2.949,0.64
		c0.86,0.969,1.465,1.741,2.161,2.421c6.831,6.681,13.615,13.412,20.542,19.992c3.783,3.594,5.251,7.595,4.233,12.861
		c-1.988,10.288-3.574,20.654-5.455,31.746c2.452-1.234,4.392-2.18,6.305-3.179c4.44-2.319,8.83-4.739,13.313-6.974
		c3.315-1.651,6.267-0.853,7.766,1.847c1.587,2.859,0.572,5.808-2.9,7.694c-5.869,3.19-11.847,6.177-17.71,9.377
		c-4.413,2.409-8.775,3.173-13.109,0.053c-4.373-3.149-4.848-7.643-4.008-12.521c1.678-9.758,3.422-19.505,4.921-29.292
		c0.205-1.333-0.43-3.271-1.381-4.23c-7.148-7.208-14.517-14.195-21.727-21.342c-5.145-5.1-5.703-11.475-1.053-15.81
		c1.871-1.744,4.662-2.996,7.211-3.432c9.994-1.709,20.072-2.913,30.079-4.552c1.448-0.237,3.237-1.534,3.911-2.835
		c4.55-8.789,8.886-17.69,13.2-26.6c2.131-4.402,5.19-7.526,10.33-7.6c5.308-0.076,8.484,3.066,10.684,7.604
		c4.317,8.908,8.659,17.806,13.215,26.592c0.675,1.303,2.464,2.601,3.912,2.839c10.007,1.64,20.059,3.004,30.098,4.445
		c4.611,0.662,8.071,2.853,9.634,7.415c1.58,4.614,0.034,8.442-3.278,11.693c-7.245,7.113-14.487,14.228-21.818,21.251
		c-1.521,1.458-2.07,2.741-1.649,4.954c1.831,9.607,3.378,19.268,5.045,28.907c1.305,7.546-1.722,13.156-8.273,14.231
		c-2.398,0.394-5.292-0.188-7.528-1.241c-6.361-2.993-12.522-6.418-18.72-9.753c-3.724-2.003-4.842-4.923-3.197-7.864
		c1.549-2.768,4.543-3.456,8.086-1.648C214.506,127.17,220.689,130.462,227.561,134.057z"/>
	<path fill-rule="evenodd" clip-rule="evenodd" d="M279.4,99.347c0.956-5.663,1.983-12.264,3.229-18.826
		c0.398-2.106-0.002-3.519-1.601-5c-4.378-4.059-8.563-8.324-12.854-12.477c-2.865-2.771-4.422-5.932-3.078-9.961
		c1.378-4.131,4.541-5.846,8.649-6.401c6.029-0.814,12.059-1.659,18.041-2.752c1.249-0.228,2.748-1.348,3.35-2.474
		c2.864-5.362,5.497-10.849,8.132-16.329c1.742-3.623,4.379-6.075,8.505-6.128c4.297-0.056,7.017,2.455,8.812,6.209
		c2.419,5.056,5.098,9.994,7.355,15.118c1.153,2.614,2.791,3.729,5.561,4.04c5.57,0.625,11.101,1.592,16.658,2.331
		c4.115,0.547,7.23,2.314,8.581,6.469c1.322,4.068-0.321,7.178-3.168,9.937c-4.372,4.24-8.787,8.442-12.998,12.838
		c-0.882,0.921-1.475,2.683-1.311,3.942c0.709,5.437,1.896,10.811,2.604,16.247c0.347,2.665,0.638,5.606-0.125,8.092
		c-1.529,4.985-7.331,6.934-12.444,4.433c-5.568-2.724-11.059-5.625-16.466-8.657c-2.146-1.203-3.832-1.113-5.938,0.06
		c-5.416,3.017-10.88,5.974-16.476,8.639C285.795,111.854,279.073,107.411,279.4,99.347z M311.89,31.98
		c-2.716,5.521-5.194,10.144-7.287,14.934c-2.137,4.892-5.608,7.328-10.937,7.8c-5.215,0.462-10.381,1.491-15.49,2.259
		c4.221,4.407,8.101,8.608,12.151,12.637c2.949,2.933,4.145,6.171,3.301,10.343c-1.126,5.569-1.931,11.205-3,17.559
		c4.685-2.438,8.948-4.258,12.778-6.744c5.774-3.749,11.126-3.841,16.925-0.046c3.8,2.487,8.042,4.295,12.843,6.802
		c-1.083-6.444-1.869-11.968-2.974-17.427c-0.839-4.146,0.172-7.489,3.208-10.37c3.288-3.12,6.499-6.319,9.731-9.498
		c0.945-0.929,1.846-1.904,3.123-3.225c-6.068-0.876-11.356-1.786-16.682-2.364c-4.848-0.526-8.12-2.752-10.121-7.284
		C317.265,42.386,314.675,37.591,311.89,31.98z"/>
	<path fill-rule="evenodd" clip-rule="evenodd" d="M40.084,99.231c0.954-5.735,2.182-12.425,3.088-19.16
		c0.182-1.351-0.46-3.245-1.405-4.241c-4.106-4.33-8.444-8.442-12.739-12.589c-2.945-2.844-4.693-6.021-3.247-10.233
		c1.42-4.139,4.594-5.791,8.694-6.333c5.794-0.769,11.553-1.819,17.358-2.483c2.354-0.27,3.473-1.339,4.414-3.389
		c2.439-5.308,5.153-10.488,7.706-15.745c1.753-3.61,4.418-6.04,8.552-6.059c4.126-0.02,6.851,2.34,8.611,5.96
		c2.661,5.469,5.251,10.978,8.129,16.331c0.651,1.21,2.26,2.408,3.605,2.658c5.977,1.113,12.014,1.917,18.04,2.758
		c3.959,0.551,7.022,2.241,8.417,6.201c1.412,4.004-0.014,7.21-2.885,10.002c-4.366,4.247-8.819,8.414-12.993,12.842
		c-1.006,1.067-1.649,3.1-1.463,4.561c0.783,6.148,1.937,12.25,2.967,18.365c0.649,3.856-0.281,7.16-3.571,9.469
		c-3.28,2.304-6.695,2.044-10.132,0.209c-5.262-2.808-10.594-5.485-15.805-8.38c-1.981-1.1-3.589-1.192-5.621-0.06
		c-5.416,3.018-10.893,5.943-16.469,8.65C46.484,111.893,39.787,107.599,40.084,99.231z M51.311,97.533
		c5.783-3.034,10.854-5.601,15.833-8.335c3.679-2.021,7.207-2.052,10.855,0.016c2.797,1.585,5.675,3.029,8.529,4.512
		c2.24,1.163,4.5,2.29,7.331,3.727c-1.122-6.532-2.047-12.277-3.113-17.996c-0.667-3.582,0.21-6.613,2.764-9.16
		c2.365-2.359,4.707-4.746,7.181-6.987c2.071-1.876,4.318-3.559,6.488-5.327c-0.325-0.35-0.649-0.7-0.974-1.05
		c-4.589-0.691-9.162-1.8-13.771-1.975c-7.049-0.268-11.104-3.764-13.581-10.101c-1.65-4.221-3.983-8.175-6.307-12.847
		c-2.747,5.559-5.289,10.272-7.431,15.161c-2.104,4.804-5.594,7.039-10.732,7.53c-5.232,0.501-10.418,1.497-15.379,2.239
		c4.078,4.329,7.903,8.573,11.936,12.61c3.047,3.05,4.189,6.396,3.298,10.69C53.109,85.685,52.362,91.208,51.311,97.533z"/>
</g>
</svg>
