<?xml version="1.0" encoding="utf-8"?>
<!-- Generator: Adobe Illustrator 16.0.0, SVG Export Plug-In . SVG Version: 6.00 Build 0)  -->
<!DOCTYPE svg PUBLIC "-//W3C//DTD SVG 1.1//EN" "http://www.w3.org/Graphics/SVG/1.1/DTD/svg11.dtd">
<svg version="1.1" id="Layer_1" xmlns="http://www.w3.org/2000/svg" xmlns:xlink="http://www.w3.org/1999/xlink" x="0px" y="0px"
	 width="383px" height="383px" viewBox="0 0 383 383" enable-background="new 0 0 383 383" xml:space="preserve">
<g>
	<path fill-rule="evenodd" clip-rule="evenodd" d="M378.727,241.389c-1.797,7.757-6.464,13.878-11.176,20.038
		c-19.124,25.005-37.74,50.439-59.321,73.423c-8.589,9.146-17.863,17.778-27.602,25.69c-18.584,15.097-40.419,19.787-63.823,16.983
		c-16.804-2.015-33.503-4.908-50.237-7.49c-4.95-0.764-7.561-4.205-6.791-8.528c0.766-4.298,4.445-6.52,9.318-5.772
		c16.02,2.453,32.016,5.085,48.077,7.229c22.584,3.014,42.593-2.832,59.932-17.909c13.585-11.813,25.754-24.953,36.951-38.956
		c15.799-19.759,31.243-39.803,46.644-59.875c6.775-8.83,3.087-20.503-7.13-23.309c-5.896-1.619-10.903,0.167-15.121,4.603
		c-17.693,18.604-35.438,37.156-53.163,55.729c-6.689,7.009-13.389,14.008-20.059,21.033c-6.179,6.508-13.78,9.638-22.705,9.641
		c-27.127,0.009-54.254,0.012-81.381-0.02c-1.432-0.002-2.929-0.135-4.282-0.565c-3.138-1-5.072-4.102-4.806-7.314
		c0.282-3.395,2.836-6.107,6.264-6.515c1.315-0.156,2.66-0.11,3.991-0.11c23.979-0.006,47.958,0.023,71.936-0.049
		c2.382-0.008,4.884-0.269,7.119-1.03c6.395-2.18,10.331-8.952,9.355-15.523c-1.041-7.017-6.789-12.335-13.967-12.397
		c-15.984-0.139-31.973-0.241-47.956-0.015c-13.065,0.186-24.461-3.757-34.419-12.188c-3.317-2.809-6.814-5.441-10.43-7.855
		c-10.744-7.176-22.434-9.003-34.626-4.708c-11.848,4.174-23.446,9.053-35.197,13.507c-16.053,6.084-32.606,9.922-49.803,10.76
		c-0.945,0.046-1.881,0.271-2.934,0.429c0,24.206,0,48.25,0,72.522c1.334,0.079,2.511,0.159,3.688,0.217
		c25.388,1.239,50.776,2.442,76.161,3.738c5.32,0.271,8.254,3.36,7.957,7.904c-0.283,4.316-3.539,6.885-8.711,6.577
		c-17.159-1.018-34.305-2.293-51.473-3.128c-10.758-0.523-21.547-0.584-32.321-0.544c-4.389,0.017-7.747-1.224-10.009-5.043
		c0-30.52,0-61.039,0-91.559c1.703-3.168,3.961-5.265,7.929-5.253c23.264,0.065,45.133-5.957,66.472-14.825
		c10.45-4.343,21.209-8.222,32.16-11.004c11.935-3.033,23.531-0.315,34.297,5.651c0.838,0.464,1.717,0.855,2.731,1.356
		c10.41-22.087,26.813-37.998,48.259-47.52c-7.965-5.427-16.618-10.214-23.953-16.531c-21.098-18.17-31.849-41.573-32.698-69.435
		c-0.196-6.434,2.544-9.11,9-8.906c31.93,1.005,57.092,14.74,75.834,40.476c0.566,0.778,1.106,1.575,2.03,2.894
		c0-17.283,0-33.985,0-50.518c-6.208-1.717-12.612-2.999-18.658-5.246c-27.033-10.049-46.07-37.196-46.423-65.713
		c-0.083-6.667,2.504-9.363,9.195-9.072c27.047,1.174,47.355,13.672,61.295,36.749c0.622,1.03,1.18,2.099,2.104,3.752
		c0.833-1.415,1.446-2.475,2.076-3.524c14.022-23.383,34.544-35.929,61.888-36.99c6.135-0.238,8.785,2.583,8.728,8.83
		c-0.321,35.176-27.346,65.212-63.33,70.386c-0.574,0.083-1.146,0.181-1.867,0.294c0,16.906,0,33.651,0,50.398
		c4.362-5.101,8.328-10.436,12.992-15.069c18.074-17.956,39.953-27.201,65.472-27.662c5.918-0.107,8.778,2.647,8.504,8.681
		c-1.737,38.159-19.779,65.938-53.534,83.626c-1.175,0.615-2.399,1.136-4.338,2.048c19.136,8.503,33.989,21.271,44.509,38.621
		c4.117-3.907,8.129-7.672,12.094-11.484c12.465-11.985,32.582-10.813,42.92,2.994c2.946,3.934,4.286,9.07,6.361,13.655
		C378.727,235.575,378.727,238.482,378.727,241.389z M266.38,281.921c-0.325,0.224,0.009,0.068,0.245-0.18
		c12.96-13.578,25.866-27.207,38.916-40.697c1.798-1.858,1.054-3.093,0.07-4.692c-16.04-26.085-39.227-39.652-69.977-40.04
		c-30.315-0.382-60.457,19.245-72.278,46.989c-0.822,1.929-0.582,2.967,1.005,4.261c6.628,5.4,14.064,8.295,22.696,8.255
		c16.711-0.078,33.424-0.089,50.134,0.052c9.037,0.077,16.638,3.843,21.814,11.127C262.141,271.404,263.907,276.786,266.38,281.921z
		 M156.835,109.475c1.818,18.348,9.033,34.009,21.563,47.181c13.557,14.251,30.189,22.374,49.931,24.516
		C226.26,147.272,197.433,113.141,156.835,109.475z M244.409,181.239c21.558-2.63,39.234-11.887,53.053-28.234
		c10.56-12.493,16.681-26.905,18.277-43.37C276.798,112.323,245.876,146.765,244.409,181.239z M293.397,22.847
		c-23.14,1.272-47.435,24.475-48.735,48.904C270.946,68.969,291.838,44.936,293.397,22.847z M178.985,22.756
		c3.364,28.465,29.05,47.756,49.133,48.808C225.642,45.382,201.386,24.27,178.985,22.756z"/>
	<path fill-rule="evenodd" clip-rule="evenodd" d="M141.813,357.373c0.049,3.977-3.385,7.428-7.333,7.366
		c-3.83-0.061-7.102-3.346-7.148-7.179c-0.047-3.949,3.007-7.135,6.96-7.257C138.434,350.177,141.762,353.305,141.813,357.373z"/>
</g>
</svg>
