<?xml version="1.0" encoding="utf-8"?>
<!-- Generator: Adobe Illustrator 16.0.0, SVG Export Plug-In . SVG Version: 6.00 Build 0)  -->
<!DOCTYPE svg PUBLIC "-//W3C//DTD SVG 1.1//EN" "http://www.w3.org/Graphics/SVG/1.1/DTD/svg11.dtd">
<svg version="1.1" id="Layer_1" xmlns="http://www.w3.org/2000/svg" xmlns:xlink="http://www.w3.org/1999/xlink" x="0px" y="0px"
	 width="383px" height="383px" viewBox="0 0 383 383" enable-background="new 0 0 383 383" xml:space="preserve">
<g>
	<path fill-rule="evenodd" clip-rule="evenodd" d="M72.752,378.729c-1-1.163-2.328-2.177-2.939-3.518
		c-1.764-3.865,1.101-7.409,6.013-7.426c15.904-0.054,31.808-0.021,47.712-0.022c1.321,0,2.642,0,4.499,0
		c0-5.037-0.021-9.844,0.005-14.65c0.029-5.622,1.719-7.311,7.431-7.324c11.897-0.027,23.795-0.009,35.693-0.009
		c1.312,0,2.624,0,4.214,0c0-10.421,0-20.515,0-30.994c-1.628,0-3.056,0-4.484,0c-40.792,0-81.584,0.002-122.376-0.001
		c-7.367-0.001-8.136-1.306-8.711-8.701c-1.469-18.896,3.812-36.794,7.559-54.908c7.071-34.188,14.387-68.325,21.618-102.479
		c1.122-5.301,2.462-6.384,7.953-6.406c8.862-0.036,17.725-0.01,26.587-0.01c67.379,0,134.759,0,202.139,0
		c7.997,0,8.681,0.604,10.338,8.505c9.329,44.491,18.92,88.928,27.806,133.508c1.654,8.298,0.632,17.158,0.557,25.757
		c-0.023,2.682-1.989,4.348-4.775,4.621c-1.324,0.13-2.666,0.111-4.001,0.111c-40.792,0.005-81.584,0.004-122.375,0.004
		c-1.308,0-2.615,0-4.167,0c0,10.389,0,20.404,0,30.994c1.308,0,2.588,0,3.868,0c11.897,0,23.795-0.013,35.692,0.005
		c6.207,0.01,7.785,1.583,7.814,7.681c0.022,4.369,0.035,8.739,0.065,13.108c0.002,0.225,0.137,0.447,0.379,1.189
		c1.113,0,2.396,0,3.679,0c15.904,0,31.808,0.019,47.712-0.016c2.889-0.005,5.359,0.62,6.467,3.608
		c1.105,2.984-0.112,5.16-2.637,6.794c-0.178,0.114-0.256,0.382-0.381,0.579C232.055,378.729,152.403,378.729,72.752,378.729z
		 M51.014,303.537c94.369,0,188.36,0,282.277,0c0-3.72,0-7.16,0-10.749c-1.862,0-3.432,0-5.001,0
		c-75.132,0-150.264,0.001-225.396-0.004c-4.922-0.001-7.507-1.874-7.548-5.397c-0.042-3.537,2.605-5.534,7.431-5.546
		c7.647-0.018,15.293-0.005,22.94-0.005c4.084,0,8.169,0,12.429,0c0.839-12.007,1.647-23.569,2.472-35.366
		c-27.194,0-53.965,0-81.044,0c-2.454,11.681-4.905,23.35-7.43,35.366c1.696,0,2.896,0,4.094,0
		c6.555,0.001,13.109-0.043,19.663,0.019c4.041,0.038,6.393,2.071,6.45,5.359c0.06,3.457-2.326,5.494-6.578,5.581
		c-1.578,0.032-3.156,0.007-4.734,0.007c-6.632,0-13.263,0-20.025,0C51.014,296.614,51.014,299.968,51.014,303.537z M232.798,246.52
		c-27.233,0-54.078,0-81.14,0c-0.835,11.797-1.652,23.35-2.48,35.044c28.875,0,57.399,0,86.111,0
		C234.452,269.806,233.637,258.332,232.798,246.52z M332.291,281.651c-2.516-11.89-4.989-23.575-7.437-35.14
		c-27.185,0-53.945,0-81.023,0c0.834,11.84,1.648,23.407,2.475,35.14C275.048,281.651,303.509,281.651,332.291,281.651z
		 M231.999,235.125c-0.841-11.973-1.653-23.536-2.471-35.174c-25.065,0-49.643,0-74.62,0c-0.811,11.799-1.61,23.438-2.417,35.174
		C179.198,235.125,205.357,235.125,231.999,235.125z M61.974,235.108c26.565,0,52.833,0,79.449,0
		c0.811-11.696,1.612-23.258,2.433-35.093c-24.986,0-49.644,0-74.485,0C66.899,211.737,64.46,223.313,61.974,235.108z
		 M322.482,235.095c-2.5-11.838-4.958-23.483-7.413-35.104c-24.99,0-49.55,0-74.489,0c0.824,11.815,1.63,23.38,2.447,35.104
		C269.582,235.095,295.853,235.095,322.482,235.095z M226.263,153.69c-22.882,0-45.443,0-68.11,0
		c-0.823,11.778-1.623,23.211-2.429,34.737c24.561,0,48.699,0,73.032,0C227.91,176.643,227.089,165.194,226.263,153.69z
		 M71.796,188.535c24.434,0,48.502,0,72.876,0c0.829-11.708,1.644-23.24,2.49-35.198c-1.876,0-3.301,0-4.726,0
		c-18.192,0-36.384,0-54.575,0c-8.619,0-8.657-0.008-10.441,8.319C75.522,170.515,73.706,179.39,71.796,188.535z M239.769,188.532
		c24.398,0,48.468,0,72.66,0c-0.079-0.939-0.063-1.667-0.209-2.362c-2.032-9.596-4.285-19.15-6.029-28.798
		c-0.623-3.449-2.034-4.13-5.24-4.106c-19.768,0.144-39.536,0.072-59.305,0.072c-1.299,0-2.597,0-4.345,0
		C238.134,165.205,238.936,176.643,239.769,188.532z M245.276,357.027c-35.55,0-70.797,0-105.96,0c0,3.718,0,7.156,0,10.532
		c35.467,0,70.629,0,105.96,0C245.276,364.005,245.276,360.652,245.276,357.027z M197.57,315.029c-3.656,0-7.073,0-10.624,0
		c0,10.315,0,20.384,0,30.437c3.721,0,7.139,0,10.624,0C197.57,335.174,197.57,325.197,197.57,315.029z"/>
	<path fill-rule="evenodd" clip-rule="evenodd" d="M193.686,5.729c3.991,2.735,5.699,11.845,2.974,15.861
		c-2.138,3.151-6.724,3.151-8.861,0c-2.726-4.016-1.018-13.126,2.974-15.861C191.743,5.729,192.715,5.729,193.686,5.729z"/>
	<path fill-rule="evenodd" clip-rule="evenodd" d="M192.162,90.147c-15.009-0.075-27.668-12.833-27.464-27.679
		c0.206-14.946,12.467-27.187,27.41-27.364c14.831-0.176,27.625,12.545,27.652,27.491C219.787,77.531,207.075,90.222,192.162,90.147
		z M192.191,46.131c-8.979,0.03-16.472,7.487-16.516,16.437c-0.045,9.009,7.8,16.783,16.764,16.61
		c8.958-0.171,16.411-7.79,16.315-16.677C208.659,53.521,201.15,46.102,192.191,46.131z"/>
	<path fill-rule="evenodd" clip-rule="evenodd" d="M197.834,110.604c-0.122,1.474-0.134,2.935-0.385,4.353
		c-0.518,2.919-2.407,4.438-5.313,4.406c-2.736-0.03-4.764-1.478-5.046-4.238c-0.316-3.097-0.319-6.271-0.034-9.372
		c0.271-2.952,2.433-4.499,5.266-4.448c2.832,0.05,4.746,1.68,5.162,4.628C197.701,107.483,197.725,109.059,197.834,110.604z"/>
	<path fill-rule="evenodd" clip-rule="evenodd" d="M154.758,20.907c4.532,0.074,11.976,7.136,11.634,10.405
		c-0.175,1.68-1.354,3.841-2.74,4.64c-1.364,0.786-4.043,0.818-5.294-0.048c-2.629-1.822-5.029-4.22-6.859-6.845
		c-0.876-1.256-0.814-3.836-0.122-5.324C152.058,22.274,154.077,21.436,154.758,20.907z"/>
	<path fill-rule="evenodd" clip-rule="evenodd" d="M222.358,36.937c-0.783-0.609-2.82-1.461-3.518-2.943
		c-0.694-1.476-0.723-4.061,0.158-5.317c1.836-2.62,4.234-5.016,6.866-6.831c1.25-0.862,3.933-0.815,5.292-0.022
		c1.36,0.793,2.472,2.969,2.642,4.645C234.131,29.757,226.713,36.89,222.358,36.937z"/>
	<path fill-rule="evenodd" clip-rule="evenodd" d="M144.851,57.099c1.288,0.088,2.882,0.041,4.411,0.336
		c2.719,0.526,4.603,2.485,4.141,5.055c-0.34,1.894-2.05,4.573-3.648,4.988c-3.156,0.821-6.684,0.592-10.009,0.276
		c-2.928-0.277-4.408-2.499-4.27-5.376c0.138-2.87,1.813-4.677,4.75-5.038C141.66,57.164,143.118,57.182,144.851,57.099z"/>
	<path fill-rule="evenodd" clip-rule="evenodd" d="M239.987,57.083c1.558,0.103,3.148,0.065,4.684,0.339
		c2.743,0.489,4.62,2.434,4.182,5.011c-0.322,1.902-2.02,4.695-3.561,5.037c-3.428,0.761-7.26,0.761-10.687-0.006
		c-1.541-0.345-3.243-3.152-3.55-5.055c-0.413-2.567,1.478-4.511,4.22-4.992C236.812,57.147,238.401,57.185,239.987,57.083z"/>
	<path fill-rule="evenodd" clip-rule="evenodd" d="M154.804,104.336c-0.712-0.542-2.754-1.362-3.442-2.821
		c-0.699-1.483-0.743-4.072,0.136-5.332c1.828-2.621,4.228-5.014,6.855-6.832c1.257-0.87,3.937-0.85,5.303-0.067
		c1.385,0.794,2.558,2.963,2.736,4.645C166.739,97.213,159.311,104.265,154.804,104.336z"/>
	<path fill-rule="evenodd" clip-rule="evenodd" d="M222.772,87.93c1.7,0.688,3.014,0.887,3.858,1.625
		c2.175,1.898,4.344,3.873,6.137,6.119c1.887,2.361,1.71,5.072-0.525,7.184c-2.089,1.974-4.7,2.139-6.931,0.321
		c-2.229-1.818-4.499-3.805-6.032-6.182c-0.931-1.443-1.115-4.001-0.496-5.623C219.349,89.894,221.449,89,222.772,87.93z"/>
</g>
</svg>
