<?xml version="1.0" encoding="utf-8"?>
<!-- Generator: Adobe Illustrator 16.0.0, SVG Export Plug-In . SVG Version: 6.00 Build 0)  -->
<!DOCTYPE svg PUBLIC "-//W3C//DTD SVG 1.1//EN" "http://www.w3.org/Graphics/SVG/1.1/DTD/svg11.dtd">
<svg version="1.1" id="Layer_1" xmlns="http://www.w3.org/2000/svg" xmlns:xlink="http://www.w3.org/1999/xlink" x="0px" y="0px"
	 width="383px" height="383px" viewBox="0 0 383 383" enable-background="new 0 0 383 383" xml:space="preserve">
<g>
	<path fill-rule="evenodd" clip-rule="evenodd" d="M1.875,371.498c2.173-4.026,5.518-5.294,10.069-5.264
		c25.548,0.164,51.098,0.079,76.646,0.079c1.331,0,2.662,0,4.204,0c0-15.901,0-31.5,0-47.306
		c-12.638-1.122-24.619-4.229-35.859-9.879C34.396,297.8,18.362,280.431,8.798,257.078c-1.224-2.99-1.18-5.781,0.925-8.331
		c1.919-2.325,4.758-3.478,7.267-2.249c2.297,1.125,4.656,3.344,5.672,5.657c5.247,11.943,12.418,22.417,22.223,31.032
		c13.658,12.001,29.551,18.919,48.124,20.906c0-1.371,0-2.558,0-3.745c0-17.774,0.066-35.548-0.1-53.319
		c-0.017-1.819-0.982-4.048-2.252-5.37c-7.266-7.565-14.822-14.85-22.146-22.359c-4.355-4.466-2.75-11.094,2.917-12.679
		c3.063-0.857,5.549,0.274,7.693,2.434c2.173,2.189,4.389,4.339,6.54,6.55c2.147,2.209,4.238,4.475,6.945,7.342
		c0.202-1.727,0.387-2.589,0.39-3.451c0.026-6.294-0.037-12.59,0.032-18.884c0.055-4.933,3.278-8.365,7.571-8.254
		c4.191,0.109,7.194,3.424,7.206,8.213c0.042,16.416,0.018,32.832,0.018,49.247c0,1.333,0,2.667,0,4.664
		c1.233-1.047,2.061-1.658,2.782-2.375c6.733-6.708,13.396-13.487,20.19-20.131c3.478-3.399,7.837-3.384,10.874-0.251
		c2.875,2.966,2.738,7.213-0.363,10.632c-0.663,0.731-1.386,1.406-2.084,2.105c-9.687,9.688-19.432,19.318-28.991,29.131
		c-1.284,1.318-2.246,3.532-2.3,5.363c-0.244,8.242-0.106,16.495-0.106,25.063c8.862-0.62,17.077-2.62,24.84-6.065
		c26.034-11.552,42.672-31.096,49.498-58.875c0.509-2.072,0.313-3.289-1.606-4.598c-32.666-22.26-52.412-52.903-59.141-91.856
		c-0.438-2.535-1.416-3.372-3.836-3.896c-38.469-8.326-78.665,12.605-94.212,49.171c-0.385,0.907-0.723,1.837-1.152,2.722
		c-1.915,3.958-5.71,5.631-9.455,4.195c-3.883-1.487-5.769-5.54-4.193-9.718c4.404-11.677,10.8-22.201,19.441-31.194
		c24.624-25.627,54.606-35.616,89.724-30.234c0.482,0.074,0.966,0.137,1.435,0.203c0.605-7.277,0.79-14.542,1.873-21.671
		c6.663-43.858,29.33-76.983,67.405-99.639c0.305-0.183,0.556-0.456,0.833-0.686c1.482,0,2.963,0,4.445,0
		c0.497,0.337,0.98,0.698,1.493,1.01c39.724,24.156,62.442,59.212,67.468,105.523c0.654,6.034,0.653,12.139,0.964,18.352
		c1.082-0.239,1.927-0.398,2.757-0.615c43.44-11.309,84.708,24.318,79.669,68.876c-0.269,2.372,0.335,3.477,2.291,4.659
		c13.457,8.133,23.087,19.568,28.388,34.379c1.933,5.396,2.942,11.122,4.373,16.698c0,4.691,0,9.383,0,14.073
		c-0.217,0.556-0.55,1.096-0.635,1.67c-6.48,44.192-50.521,70.044-92.182,54.102c-0.852-0.325-1.754-0.524-2.681-0.797
		c0,15.629,0,30.965,0,46.505c1.659,0,3.003,0,4.348,0c27.027,0,54.056,0.082,81.082-0.08c4.556-0.027,7.885,1.259,10.067,5.265
		c0,3.207,0,6.414,0,9.623c-126.417,0.002-252.833,0.002-379.25,0C1.875,377.912,1.875,374.705,1.875,371.498z M285.303,237.892
		c1.59-1.491,2.477-2.278,3.314-3.112c4.809-4.792,9.535-9.67,14.453-14.348c1.364-1.298,3.176-2.487,4.97-2.892
		c3.357-0.755,6.083,0.771,7.674,3.824c1.786,3.43,0.791,6.454-1.819,9.067c-8.813,8.819-17.691,17.573-26.381,26.513
		c-1.205,1.24-2.081,3.37-2.105,5.103c-0.178,12.464-0.021,24.933-0.157,37.398c-0.026,2.496,0.885,3.763,2.999,4.849
		c14.554,7.472,29.627,8.745,44.683,2.424c20.354-8.547,32.056-24.284,33.134-46.352c1.108-22.673-9.288-39.596-29.426-50.263
		c-6.508-3.445-7.072-4.823-6.09-11.928c0.755-5.455,1.449-11.174,0.642-16.544c-3.041-20.216-14.378-34.273-33.929-40.407
		c-19.709-6.183-37.361-1.286-51.14,14.068c-13.578,15.128-16.079,32.829-8.697,51.756c3.261,8.359,2.063,11.324-6.41,13.964
		c-25.296,7.878-38.718,35.81-29,60.35c9.897,24.993,38.963,36.291,62.933,24.631c3.975-1.934,6.472-4.103,5.606-8.909
		c-0.346-1.912-0.215-3.955-0.02-5.91c0.272-2.704-0.731-4.59-2.665-6.476c-8.218-8.015-16.316-16.152-24.369-24.333
		c-3.228-3.277-3.298-7.619-0.457-10.597c2.939-3.082,7.488-3.096,10.88,0.181c4.703,4.547,9.268,9.235,13.914,13.841
		c0.629,0.624,1.385,1.12,2.66,2.135c0-2.041,0-3.368,0-4.694c0.001-12.591-0.024-25.181,0.017-37.771
		c0.016-4.88,1.803-7.478,5.576-8.448c4.894-1.259,8.995,2.125,9.179,7.801C285.424,227.545,285.303,232.288,285.303,237.892z
		 M198.905,110.815c0.305,0.147,0.607,0.295,0.911,0.443c3.692-3.801,7.36-7.625,11.085-11.394c2.274-2.303,4.994-3.138,8.111-1.958
		c5.191,1.964,6.412,8.157,2.28,12.406c-6.626,6.814-13.496,13.39-20.057,20.265c-1.265,1.326-2.223,3.558-2.232,5.377
		c-0.142,26.416-0.1,52.833-0.088,79.251c0.001,1.026,0.142,2.052,0.217,3.077c0.311,0.197,0.622,0.395,0.933,0.591
		c6.165-5.981,12.384-11.913,18.432-18.011c0.762-0.77,0.996-2.47,0.855-3.666c-2.856-24.259,5.011-44.297,24.111-59.469
		c3.744-2.974,4.862-6.027,4.97-10.188c1.148-44.961-16.56-80.57-52.882-107.053c-2.954-2.154-4.981-2.157-8.025-0.061
		c-59.53,41.021-70.808,123.604-24.313,178.952c6.014,7.159,12.726,13.584,20.879,19.471c0-1.778,0-2.854,0-3.931
		c0-14.688-0.05-29.379,0.05-44.068c0.016-2.404-0.661-4.109-2.391-5.803c-8.463-8.294-16.806-16.711-25.173-25.103
		c-4.161-4.172-4.625-8.299-1.376-11.669c3.198-3.318,7.781-2.819,11.955,1.334c4.725,4.702,9.421,9.432,14.148,14.132
		c0.728,0.724,1.551,1.352,2.787,2.418c0-11.123,0-21.59,0-32.059c0-10.986-0.055-21.973,0.024-32.959
		c0.043-6,5.093-9.691,10.139-7.534c3.358,1.434,4.671,4.139,4.659,7.684C198.886,91.131,198.905,100.973,198.905,110.815z
		 M108.013,366.046c25.468,0,50.682,0,75.865,0c0-30.793,0-61.317,0-92.623c-18.565,27.19-43.651,42.313-75.865,45.665
		C108.013,334.735,108.013,350.243,108.013,366.046z M270.499,320.057c-27.372,10.456-50.969,5.4-71.347-14.979
		c0,20.645,0,40.825,0,60.945c23.856,0,47.467,0,71.347,0c0-14.221,0-28.152,0-42.083
		C270.499,322.845,270.499,321.75,270.499,320.057z"/>
	<path fill-rule="evenodd" clip-rule="evenodd" d="M1.875,218.169c0.448-0.539,0.909-1.068,1.34-1.619
		c2.264-2.895,5.638-4.003,8.776-2.672c3.128,1.325,4.803,3.809,4.623,7.219c-0.171,3.229-1.936,5.517-5.014,6.575
		c-3.288,1.132-6.601-0.143-8.623-3.165c-0.406-0.606-0.737-1.262-1.104-1.894C1.875,221.132,1.875,219.65,1.875,218.169z"/>
</g>
</svg>
